<?xml version="1.0" encoding="UTF-8"?>
<svg version="1.1" xmlns="http://www.w3.org/2000/svg" width="172" height="161">
<path d="M0 0 C2.4110649 2.20535896 4.74858098 4.40059853 6.96875 6.80078125 C7.48695313 7.32542969 8.00515625 7.85007812 8.5390625 8.390625 C25.26534333 26.12948337 28.8172029 48.18842489 28.13916016 71.68945312 C27.29220605 87.15303923 19.35465925 103.40423486 8.96875 114.80078125 C8.25332031 115.60773438 7.53789062 116.4146875 6.80078125 117.24609375 C-4.17892418 128.96016773 -21.08038886 140.09131725 -37.55200195 140.99365234 C-41.3306812 141.08397076 -45.11027962 141.12292375 -48.88989258 141.15087891 C-50.50625158 141.16728211 -52.12254292 141.19435986 -53.73852539 141.23291016 C-75.64839947 141.75140702 -94.01881534 133.99859284 -110.03125 118.80078125 C-127.06460385 100.78885052 -132.59547653 79.54280857 -132.30078125 55.34765625 C-131.8016766 38.04863983 -124.29082767 21.80559346 -113.03125 8.80078125 C-112.309375 7.81078125 -111.5875 6.82078125 -110.84375 5.80078125 C-98.31681779 -8.82744282 -76.85048097 -17.50025299 -58.09765625 -19.08105469 C-36.98653984 -20.28825936 -16.10883127 -13.82674684 0 0 Z M-93.03125 33.80078125 C-93.77715764 36.55739365 -93.77715764 36.55739365 -93.67822266 39.53735352 C-93.69398346 40.66524796 -93.70974426 41.7931424 -93.72598267 42.95521545 C-93.71586151 44.16366623 -93.70574036 45.372117 -93.6953125 46.6171875 C-93.70009613 47.86580063 -93.70487976 49.11441376 -93.70980835 50.40086365 C-93.71320891 53.03855427 -93.70652595 55.67392143 -93.68310547 58.3112793 C-93.65458596 61.68676706 -93.67104629 65.06026981 -93.70096779 68.43568516 C-93.72340368 71.6629234 -93.70768613 74.88992335 -93.6953125 78.1171875 C-93.70543365 79.32766251 -93.71555481 80.53813751 -93.72598267 81.78529358 C-93.71022186 82.91003586 -93.69446106 84.03477814 -93.67822266 85.19360352 C-93.67424469 86.18223892 -93.67026672 87.17087433 -93.66616821 88.18946838 C-93.20873124 90.97476751 -93.20873124 90.97476751 -90.93441772 93.1178894 C-87.35186076 95.19460576 -85.06405608 95.31379334 -80.93359375 95.33422852 C-80.238638 95.34284409 -79.54368225 95.35145966 -78.82766724 95.3603363 C-76.54097767 95.38295431 -74.25551771 95.37626654 -71.96875 95.3671875 C-70.37361285 95.37242468 -68.7784788 95.37870151 -67.18334961 95.38597107 C-63.84441528 95.39636726 -60.50590736 95.39182491 -57.16699219 95.37719727 C-52.89274665 95.36000261 -48.61984456 95.38351563 -44.3457489 95.41868687 C-41.05309174 95.4406689 -37.76075573 95.43921771 -34.4680481 95.43092155 C-32.89241054 95.43010261 -31.31674927 95.43695528 -29.74118042 95.45169258 C-27.53625365 95.46915711 -25.33373697 95.45458583 -23.12890625 95.43188477 C-21.24957397 95.43044212 -21.24957397 95.43044212 -19.33227539 95.42897034 C-15.07214668 94.61826274 -13.60275722 93.24979861 -11.03125 89.80078125 C-10.2859859 87.09223892 -10.2859859 87.09223892 -10.38427734 84.171875 C-10.36851654 83.067229 -10.35275574 81.96258301 -10.33651733 80.82446289 C-10.35169907 79.04930298 -10.35169907 79.04930298 -10.3671875 77.23828125 C-10.36240387 76.01423584 -10.35762024 74.79019043 -10.35269165 73.52905273 C-10.34929222 70.94350905 -10.35849737 68.35792241 -10.37939453 65.77246094 C-10.40615534 61.81478029 -10.37964375 57.85993617 -10.34765625 53.90234375 C-10.35096034 51.38931666 -10.35736653 48.87629133 -10.3671875 46.36328125 C-10.35706635 45.17984131 -10.34694519 43.99640137 -10.33651733 42.77709961 C-10.35227814 41.67245361 -10.36803894 40.56780762 -10.38427734 39.4296875 C-10.38825531 38.4610376 -10.39223328 37.4923877 -10.39633179 36.49438477 C-11.30552528 32.63718435 -12.89215007 31.16727408 -16.03125 28.80078125 C-19.39340851 28.04812477 -19.39340851 28.04812477 -23.12890625 28.15380859 C-24.17133987 28.1406662 -24.17133987 28.1406662 -25.23483276 28.1272583 C-27.52178212 28.1053318 -29.80678256 28.11979025 -32.09375 28.13671875 C-33.68888722 28.1333486 -35.28402194 28.12849433 -36.87915039 28.1222229 C-40.21818552 28.11486082 -43.55655072 28.12553474 -46.89550781 28.14892578 C-51.169798 28.17741427 -55.44251847 28.16100657 -59.7167511 28.13106346 C-63.00943776 28.11297186 -66.30175391 28.11875681 -69.5944519 28.13170242 C-71.17007637 28.13503134 -72.74573477 28.13096739 -74.32131958 28.11930466 C-76.52631354 28.1065638 -78.728787 28.12601168 -80.93359375 28.15380859 C-82.18648193 28.15778656 -83.43937012 28.16176453 -84.73022461 28.16586304 C-88.98963998 28.98511768 -90.46185708 30.34756937 -93.03125 33.80078125 Z " fill="#135BEB" transform="translate(136.03125,20.19921875)"/>
<path d="M0 0 C22.44 0 44.88 0 68 0 C68 13.86 68 27.72 68 42 C45.56 42 23.12 42 0 42 C0 28.14 0 14.28 0 0 Z M15 5 C13.30911778 6.97956942 11.64169528 8.97945196 10 11 C12.97 13.97 15.94 16.94 19 20 C17.25323081 23.49353838 16.08594785 25.13945763 13.375 27.75 C12.42753906 28.67039062 12.42753906 28.67039062 11.4609375 29.609375 C10.97882812 30.06828125 10.49671875 30.5271875 10 31 C11.51398455 34.78496138 12.0144396 35.0072198 16 37 C20.95 32.05 25.9 27.1 31 22 C29.36591376 18.73182753 28.45129642 17.20171374 25.99609375 14.765625 C25.13274414 13.90517578 25.13274414 13.90517578 24.25195312 13.02734375 C23.65318359 12.44082031 23.05441406 11.85429688 22.4375 11.25 C21.53354492 10.34701172 21.53354492 10.34701172 20.61132812 9.42578125 C18.18563109 6.42015435 18.18563109 6.42015435 15 5 Z M34 30 C34 32.31 34 34.62 34 37 C41.92 37 49.84 37 58 37 C58.33 34.69 58.66 32.38 59 30 C50.75 30 42.5 30 34 30 Z " fill="#135AEB" transform="translate(50,65)"/>
<path d="M0 0 C22.44 0 44.88 0 68 0 C68 13.86 68 27.72 68 42 C45.56 42 23.12 42 0 42 C0 28.14 0 14.28 0 0 Z M15 2 C14.67 2.66 14.34 3.32 14 4 C15.98 3.67 17.96 3.34 20 3 C20 4.32 20 5.64 20 7 C21.98491642 6.73323796 21.98491642 6.73323796 24 6 C24.33 5.01 24.66 4.02 25 3 C25.99 3 26.98 3 28 3 C28 3.66 28 4.32 28 5 C27.34 5 26.68 5 26 5 C26.33 6.32 26.66 7.64 27 9 C26.01 8.34 25.02 7.68 24 7 C22.98888907 10.04913228 22.98888907 10.04913228 24 13 C21.36 10.36 18.72 7.72 16 5 C13.03 7.475 13.03 7.475 10 10 C10.93590504 11.1055189 11.87379858 12.20935453 12.8125 13.3125 C13.33457031 13.92738281 13.85664062 14.54226562 14.39453125 15.17578125 C15.87172469 16.85424679 17.40039131 18.43882034 19 20 C17.59155282 23.21524305 15.89655214 25.32183868 13.375 27.75 C12.42753906 28.67039062 12.42753906 28.67039062 11.4609375 29.609375 C10.97882812 30.06828125 10.49671875 30.5271875 10 31 C11.39159663 34.47899158 12.63251488 35.48052501 16 37 C18.51212252 34.57473278 21.00746398 32.13287993 23.5 29.6875 C24.21542969 28.99720703 24.93085937 28.30691406 25.66796875 27.59570312 C26.34472656 26.92861328 27.02148438 26.26152344 27.71875 25.57421875 C28.34716797 24.96151123 28.97558594 24.34880371 29.62304688 23.7175293 C31.31275311 21.97678075 31.31275311 21.97678075 31 19 C31.66 19.66 32.32 20.32 33 21 C32.45730469 21.51949219 31.91460937 22.03898437 31.35546875 22.57421875 C27.65499201 26.18135013 24.48350739 29.42511796 22 34 C20.3125 35.8125 20.3125 35.8125 19 37 C19.66 37.99 20.32 38.98 21 40 C24.12557959 40.36530232 24.12557959 40.36530232 27.625 40.1875 C28.81351563 40.16042969 30.00203125 40.13335937 31.2265625 40.10546875 C32.59941406 40.05326172 32.59941406 40.05326172 34 40 C34 39.01 34 38.02 34 37 C40.6 37.33 47.2 37.66 54 38 C48.39 38 42.78 38 37 38 C36.67 38.66 36.34 39.32 36 40 C45.9 40 55.8 40 66 40 C66.87588798 35.62056008 67.13055618 31.71062649 67.09765625 27.29296875 C67.09664917 26.64928345 67.09564209 26.00559814 67.09460449 25.34240723 C67.08940599 22.95741981 67.07544492 20.57245795 67.0625 18.1875 C67.041875 12.845625 67.02125 7.50375 67 2 C49.84 2 32.68 2 15 2 Z " fill="#1B59D8" transform="translate(50,65)"/>
<path d="M0 0 C9.30124275 -0.06954996 18.6023958 -0.12283657 27.90384197 -0.15543652 C32.22301617 -0.17108389 36.54201228 -0.1923051 40.86108398 -0.22631836 C45.03024353 -0.2589451 49.19923192 -0.27686 53.36850929 -0.28463173 C54.95811469 -0.2901693 56.54771085 -0.30098291 58.13724327 -0.31719017 C60.36603316 -0.339009 62.59411832 -0.34196514 64.82299805 -0.34057617 C66.09096725 -0.34723801 67.35893646 -0.35389984 68.66532898 -0.36076355 C72.26596985 0.02877412 74.19687154 0.72324912 77 3 C77 3.99 77 4.98 77 6 C77.66 6 78.32 6 79 6 C79.06949335 13.51037714 79.12280778 21.02072096 79.15543652 28.53134632 C79.17109635 32.01881576 79.1923398 35.50606532 79.22631836 38.9934082 C79.2651328 43.00213743 79.2797065 47.01063548 79.29296875 51.01953125 C79.30845261 52.27272659 79.32393646 53.52592194 79.33988953 54.8170929 C79.34011612 55.97806992 79.34034271 57.13904694 79.34057617 58.33520508 C79.35056892 59.87075798 79.35056892 59.87075798 79.36076355 61.43733215 C78.95037913 64.35247963 78.28869739 65.22634159 76 67 C75.34 66.67 74.68 66.34 74 66 C74.99 64.515 74.99 64.515 76 63 C76.31748835 60.46243949 76.31748835 60.46243949 76.29052734 57.58227539 C76.30328705 56.47425064 76.31604675 55.36622589 76.32919312 54.22462463 C76.33141876 53.02772507 76.33364441 51.8308255 76.3359375 50.59765625 C76.3425943 49.36840927 76.3492511 48.13916229 76.35610962 46.87266541 C76.36624242 44.27100117 76.37092645 41.6693109 76.37060547 39.06762695 C76.37036219 35.08188891 76.41129625 31.0968845 76.44921875 27.11132812 C76.4550866 24.5859413 76.4590562 22.0605492 76.4609375 19.53515625 C76.47530853 18.34028091 76.48967957 17.14540558 76.50448608 15.9143219 C76.4952562 14.24755653 76.4952562 14.24755653 76.48583984 12.54711914 C76.48868988 11.57021622 76.49153992 10.59331329 76.49447632 9.58680725 C75.83448319 6.13411407 74.87342273 5.0109813 72 3 C68.69491986 2.38255987 68.69491986 2.38255987 64.93652344 2.45410156 C64.23368225 2.44376389 63.53084106 2.43342621 62.80670166 2.42277527 C60.49069218 2.39334973 58.1755567 2.39184825 55.859375 2.390625 C54.25081719 2.37564307 52.64227477 2.35891588 51.03375244 2.34051514 C46.80545342 2.29683036 42.57736191 2.2768402 38.34887695 2.26177979 C34.03193893 2.24221264 29.71522513 2.20024224 25.3984375 2.16015625 C16.93235032 2.08484199 8.46635117 2.03455809 0 2 C0 1.34 0 0.68 0 0 Z " fill="#2459C2" transform="translate(48,47)"/>
<path d="M0 0 C0.33 0 0.66 0 1 0 C1 1.98 1 3.96 1 6 C-20.78 6 -42.56 6 -65 6 C-65 5.67 -65 5.34 -65 5 C-54.11 5 -43.22 5 -32 5 C-32 4.01 -32 3.02 -32 2 C-24.41 2 -16.82 2 -9 2 C-12.04681061 4.03120707 -12.60118324 4.24659875 -16.01171875 4.1953125 C-16.69451904 4.19031738 -17.37731934 4.18532227 -18.08081055 4.18017578 C-18.94101807 4.16196777 -19.80122559 4.14375977 -20.6875 4.125 C-24.8021875 4.063125 -24.8021875 4.063125 -29 4 C-19.43 4.33 -9.86 4.66 0 5 C0 3.35 0 1.7 0 0 Z " fill="#1859CF" transform="translate(116,100)"/>
<path d="M0 0 C0.99 0.66 1.98 1.32 3 2 C2.01 2.66 1.02 3.32 0 4 C0.66 4.33 1.32 4.66 2 5 C1.67 6.65 1.34 8.3 1 10 C0.34 9.67 -0.32 9.34 -1 9 C-0.67 8.01 -0.34 7.02 0 6 C-8.25 6 -16.5 6 -25 6 C-25 8.31 -25 10.62 -25 13 C-25.33 13 -25.66 13 -26 13 C-26.09765625 6.84765625 -26.09765625 6.84765625 -26 5 C-25 4 -25 4 -22.95874023 3.88647461 C-22.08419189 3.89171143 -21.20964355 3.89694824 -20.30859375 3.90234375 C-19.36435547 3.90556641 -18.42011719 3.90878906 -17.44726562 3.91210938 C-16.45404297 3.92048828 -15.46082031 3.92886719 -14.4375 3.9375 C-13.44041016 3.94201172 -12.44332031 3.94652344 -11.41601562 3.95117188 C-8.94395151 3.96299993 -6.47200482 3.97948151 -4 4 C-4 3.34 -4 2.68 -4 2 C-2.68 1.34 -1.36 0.68 0 0 Z " fill="#225CCB" transform="translate(109,89)"/>
<path d="M0 0 C1.51065993 3.02131987 0.52683415 5.18492266 -0.1875 8.4375 C-0.42855469 9.59121094 -0.66960938 10.74492188 -0.91796875 11.93359375 C-2.14258999 15.40409078 -3.12687275 15.91965346 -6 18 C-7.1213706 20.70655172 -7.1213706 20.70655172 -7.75 23.6875 C-7.99234375 24.68136719 -8.2346875 25.67523438 -8.484375 26.69921875 C-8.65453125 27.45847656 -8.8246875 28.21773437 -9 29 C-9.33 29 -9.66 29 -10 29 C-9.46420848 18.46276671 -5.58289873 8.89128316 0 0 Z " fill="#265BD4" transform="translate(15,40)"/>
<path d="M0 0 C0.33 0 0.66 0 1 0 C0.78687437 6.07408042 -0.60768826 11.12846934 -2.875 16.75 C-3.13168457 17.38752197 -3.38836914 18.02504395 -3.65283203 18.68188477 C-5.1669755 22.31687596 -6.88405487 25.68037351 -9 29 C-10.34882814 26.30234372 -9.80338265 24.84835666 -9 22 C-8.34 21.67 -7.68 21.34 -7 21 C-6.53476937 19.10466658 -6.53476937 19.10466658 -6.375 16.9375 C-6.25125 15.638125 -6.1275 14.33875 -6 13 C-5.01 13 -4.02 13 -3 13 C-2.814375 11.453125 -2.814375 11.453125 -2.625 9.875 C-2.06110186 6.37883154 -1.21317941 3.31602373 0 0 Z " fill="#275DCC" transform="translate(162,95)"/>
<path d="M0 0 C1.65 0.66 3.3 1.32 5 2 C3.700625 3.485 3.700625 3.485 2.375 5 C-0.44662776 8.27415296 -3.01107586 11.67666082 -5.5078125 15.203125 C-7.20171788 17.24290635 -8.70212014 18.66462831 -11 20 C-13.25 19.6875 -13.25 19.6875 -15 19 C-14.5153125 18.5875 -14.030625 18.175 -13.53125 17.75 C-9.76948934 14.50909851 -6.05537851 11.21343341 -2.4375 7.8125 C-1.75558594 7.17957031 -1.07367188 6.54664062 -0.37109375 5.89453125 C1.26973728 4.08199474 1.26973728 4.08199474 0.71484375 1.76171875 C0.47894531 1.18035156 0.24304688 0.59898438 0 0 Z " fill="#245CCD" transform="translate(79,83)"/>
<path d="M0 0 C4.08258878 0.60344834 7.1471303 1.94618418 10.75 3.9375 C11.71421875 4.46214844 12.6784375 4.98679687 13.671875 5.52734375 C16 7 16 7 17 9 C15.35 8.67 13.7 8.34 12 8 C12 7.34 12 6.68 12 6 C8.4588979 5.91952041 5.40590348 6.02688472 2 7 C1.34 7 0.68 7 0 7 C0 6.34 0 5.68 0 5 C0.66 5 1.32 5 2 5 C1.34 3.35 0.68 1.7 0 0 Z " fill="#1E5BD3" transform="translate(112,7)"/>
<path d="M0 0 C0.66 0.33 1.32 0.66 2 1 C0.35 1.66 -1.3 2.32 -3 3 C-2.01 4.98 -1.02 6.96 0 9 C-5.95703125 9.390625 -5.95703125 9.390625 -8 9 C-9.76171875 6.984375 -9.76171875 6.984375 -11 5 C-9.21289414 4.13633178 -7.4201535 3.28431406 -5.625 2.4375 C-4.62726562 1.96183594 -3.62953125 1.48617188 -2.6015625 0.99609375 C-1.74304687 0.66738281 -0.88453125 0.33867188 0 0 Z " fill="#1F5DDC" transform="translate(56,6)"/>
<path d="M0 0 C0.2475 0.61875 0.495 1.2375 0.75 1.875 C2.20628639 4.35068687 3.37812506 4.95125002 6 6 C6 7.65 6 9.3 6 11 C6.99 10.67 7.98 10.34 9 10 C9 11.98 9 13.96 9 16 C4.90519801 12.25618103 1.2551317 8.1331093 -1 3 C-0.67 2.01 -0.34 1.02 0 0 Z " fill="#255BCE" transform="translate(14,118)"/>
<path d="M0 0 C3.81684226 1.55500981 6.19195732 4.03595495 9 7 C6.69 7.33 4.38 7.66 2 8 C2 7.34 2 6.68 2 6 C1.01 5.34 0.02 4.68 -1 4 C-0.67 2.68 -0.34 1.36 0 0 Z " fill="#1E5ADC" transform="translate(129,16)"/>
<path d="M0 0 C0.99 0.495 0.99 0.495 2 1 C2.33 1.99 2.66 2.98 3 4 C5.97 4.495 5.97 4.495 9 5 C8.01 5.66 7.02 6.32 6 7 C5.27617533 9.05925139 5.27617533 9.05925139 5 11 C5.66 11 6.32 11 7 11 C7 12.98 7 14.96 7 17 C4.48757583 13.96205445 3.11771466 11.08561027 1.8125 7.375 C1.46832031 6.41335937 1.12414062 5.45171875 0.76953125 4.4609375 C0 2 0 2 0 0 Z " fill="#215DD3" transform="translate(6,102)"/>
<path d="M0 0 C0.66 0.33 1.32 0.66 2 1 C0.875 3.875 0.875 3.875 -1 7 C-3.875 8.25 -3.875 8.25 -7 9 C-8.67163195 9.65411685 -10.34015202 10.31653318 -12 11 C-8.19588166 7.08060535 -4.18423892 3.50897269 0 0 Z " fill="#2F60D3" transform="translate(38,15)"/>
<path d="M0 0 C0.625 1.8125 0.625 1.8125 1 4 C0.01 5.485 0.01 5.485 -1 7 C-1.16713569 9.62531524 -1.16713569 9.62531524 -1 12 C-2.32 11.67 -3.64 11.34 -5 11 C-4.50769231 4.6 -4.50769231 4.6 -1.9375 1.5625 C-0.9784375 0.7890625 -0.9784375 0.7890625 0 0 Z " fill="#135BF2" transform="translate(61,88)"/>
<path d="M0 0 C2.54344286 2.27301934 3.87616437 4.45086481 5.25 7.5625 C5.60578125 8.34753906 5.9615625 9.13257813 6.328125 9.94140625 C7 12 7 12 6 14 C5.01 13.34 4.02 12.68 3 12 C3 11.34 3 10.68 3 10 C2.34 9.67 1.68 9.34 1 9 C0.5859375 6.93359375 0.5859375 6.93359375 0.375 4.4375 C0.30023438 3.61121094 0.22546875 2.78492188 0.1484375 1.93359375 C0.09945312 1.29550781 0.05046875 0.65742187 0 0 Z " fill="#255BD0" transform="translate(152,40)"/>
<path d="M0 0 C0.66 0.33 1.32 0.66 2 1 C1.45700313 4.80097811 -0.07276772 6.57457897 -3 9 C-5.25 9.75 -5.25 9.75 -7 10 C-5.6062718 5.56541027 -3.39417765 3.12621626 0 0 Z " fill="#235DD5" transform="translate(25,27)"/>
<path d="M0 0 C1.98 1.65 3.96 3.3 6 5 C4.60667426 8.36720387 3.0210714 9.9859524 0 12 C0.33 10.35 0.66 8.7 1 7 C1.66 7 2.32 7 3 7 C2.505 6.21625 2.01 5.4325 1.5 4.625 C0 2 0 2 0 0 Z " fill="#2557C8" transform="translate(64,80)"/>
<path d="M0 0 C2.97 0 5.94 0 9 0 C5.63576723 2.96052484 2.30840713 3.92289822 -2 5 C-1.34 3.35 -0.68 1.7 0 0 Z " fill="#265ED1" transform="translate(114,152)"/>
<path d="M0 0 C0.66 0.33 1.32 0.66 2 1 C-0.64 2.98 -3.28 4.96 -6 7 C-6.66 6.67 -7.32 6.34 -8 6 C-7.34 4.35 -6.68 2.7 -6 1 C-4.7934375 1.0309375 -4.7934375 1.0309375 -3.5625 1.0625 C-1.06645115 1.29633621 -1.06645115 1.29633621 0 0 Z " fill="#255CD0" transform="translate(131,145)"/>
<path d="M0 0 C2.97 0.495 2.97 0.495 6 1 C4.35 2.98 2.7 4.96 1 7 C-0.0625 5.1875 -0.0625 5.1875 -1 3 C-0.67 2.01 -0.34 1.02 0 0 Z " fill="#1E5BDA" transform="translate(138,134)"/>
<path d="M0 0 C2.31 0.33 4.62 0.66 7 1 C7.33 2.65 7.66 4.3 8 6 C4.63408134 4.55746343 2.48952921 2.66735273 0 0 Z " fill="#285CCE" transform="translate(32,143)"/>
<path d="M0 0 C-2.97 3.96 -2.97 3.96 -6 8 C-6 5.33333333 -6 2.66666667 -6 0 C-3 -1 -3 -1 0 0 Z " fill="#2357CF" transform="translate(152,126)"/>
<path d="M0 0 C0.99 0.33 1.98 0.66 3 1 C2.01 1.99 1.02 2.98 0 4 C0.309375 4.61875 0.61875 5.2375 0.9375 5.875 C1.625 7.25 2.3125 8.625 3 10 C1.0625 9.3125 1.0625 9.3125 -1 8 C-1.875 5.5625 -1.875 5.5625 -2 3 C-1.34 2.01 -0.68 1.02 0 0 Z " fill="#2355C1" transform="translate(61,92)"/>
<path d="M0 0 C0.99 0 1.98 0 3 0 C3 0.99 3 1.98 3 3 C2.34 3 1.68 3 1 3 C1 3.66 1 4.32 1 5 C-1.475 4.01 -1.475 4.01 -4 3 C-2.68 2.67 -1.36 2.34 0 2 C0 1.34 0 0.68 0 0 Z " fill="#1D5DDB" transform="translate(44,147)"/>
<path d="M0 0 C0.66 0 1.32 0 2 0 C2 1.32 2 2.64 2 4 C2.99 3.67 3.98 3.34 5 3 C5 4.98 5 6.96 5 9 C1.7457985 6.16569547 0.4793247 4.31392226 0 0 Z " fill="#1B54D9" transform="translate(18,125)"/>
</svg>
